<svg id="afa45bc7-502c-42c9-9fd9-3fc7347ffea9" data-name="Vectors" xmlns="http://www.w3.org/2000/svg" width="1792" height="403.1" viewBox="0 0 1792 403.1"><defs><style>.ba2cba0b-558b-490e-a3d1-6a165150d18c{fill:#15509d;}</style></defs><path class="ba2cba0b-558b-490e-a3d1-6a165150d18c" d="M0,2048V1695.3H110.8v100.8L262,1645H418.7L206,1857.7l84.4,74.2c6.2,5,13,7.4,22.8,5.3s19.3-10.1,19.3-27.7V1796.2H443.4v151.2c0,55.6-61,100.7-136.1,100.7-37.5,0-77.3-11.5-105.5-37.2l-91-80.3V2048Zm1739.3-352.7a52.65,52.65,0,1,1-52.6,52.7,52.707,52.707,0,0,1,52.6-52.7ZM545.7,1921.7c0,21.8,3,37.4,9,46.9s15.8,14.2,29.5,14.2,23.6-4.8,29.8-14.4c6.1-9.6,9.2-25.2,9.2-46.8,0-21.5-3.1-36.9-9.2-46.4-6.2-9.4-16-14.2-29.8-14.2s-23.6,4.6-29.5,14-9,25.1-9,46.7Zm-94.5,0q0-58.35,35.5-91.9c23.7-22.4,56.1-33.7,97.5-33.7s73.9,11.2,97.4,33.7q35.4,33.6,35.4,91.9,0,58.8-35.6,92.6-35.4,33.6-97.2,33.7c-41.3,0-73.7-11.2-97.5-33.7q-35.4-33.75-35.5-92.6Zm273.7,117.9v-235h85V1839c11-13.7,23.1-23.9,36.6-30.6s28.7-10.1,45.7-10.1c14.3,0,27,2.4,38.3,7.2a72.867,72.867,0,0,1,28.5,21.2,75.472,75.472,0,0,1,15,31c3,12.2,4.4,32.1,4.4,59.8v122.2H885V1917.9q0-26.85-7.2-36.9c-4.8-6.7-12.9-10.1-24.7-10.1s-20.6,3.9-26.3,11.7-8.6,19.7-8.6,35.7v121.3Zm431-104.9c-8.9,3.5-20.8,7.1-35.6,11-23.4,6.1-35,14.5-35,24.8,0,6.7,2.3,11.8,7,15.6,4.6,3.8,11.1,5.6,19.6,5.6,15.6,0,27-3.6,34.1-10.7,7.2-7.3,10.7-18.7,10.7-34.4,0-3.3,0-5.9-.1-7.5-.2-1.5-.4-3.1-.7-4.4Zm8.6,104.9-5.8-22.5a121.925,121.925,0,0,1-38.7,23.4c-13.9,5-29.5,7.5-46.7,7.5q-39.75,0-61.5-19.5-21.75-19.65-21.7-55.3c0-23.1,7.2-40.3,21.4-51.4s41.3-19.1,80.9-24.2c5-.6,11.8-1.5,20.2-2.3,29.6-3.2,44.4-10.9,44.4-22.9,0-6.7-2.8-11.7-8.1-14.8-5.4-3.1-13.9-4.6-25.6-4.6-9.7,0-17.1,2-22.3,5.7-5.2,3.8-8.2,9.7-9.1,17.6h-91.3c.5-26.3,11.2-46.2,32.4-59.7s52.3-20.2,93.5-20.2c19.3,0,37.1,1.7,53.5,5.4,16.3,3.6,29.1,8.4,38.2,14.6,11,7.4,18.9,15.9,23.3,25.3,4.5,9.5,6.7,23,6.7,40.6v131a26.737,26.737,0,0,0,2.5,11.6,20.9,20.9,0,0,0,7.6,8.3v6.7h-93.8Zm107.6,0v-235h85V1839q15.6-20.85,35-30.7c13-6.7,27.9-10,44.8-10,15.4,0,28.7,3.3,39.9,9.8q16.65,9.75,30,30.9c11.3-14.2,23.8-24.5,37.3-31.1,13.6-6.7,28.9-10,45.9-10,27.6,0,49.2,7.2,64.4,21.4,15.3,14.3,22.9,34.3,22.9,60.2v160.2h-92.1V1913.8c0-14.7-2.5-25.3-7.5-31.9-4.9-6.7-13-10-24.1-10-11.4,0-19.7,3.5-25.1,10.4-5.4,6.8-8,17.7-8,32.4v125h-91.7V1917.1c0-16.1-2.6-27.6-7.7-34.7q-7.65-10.5-25.2-10.5c-10.4,0-18.3,3.6-23.7,10.7q-8.1,10.5-8.1,30.9v126.3h-92Zm416.5,0v-235h94.3v235Z" transform="translate(0 -1645)"/></svg>